M48
;Layer_Color=9474304
;FILE_FORMAT=4:4
METRIC,LZ
;TYPE=PLATED
T01F00S00C0.3000
T02F00S00C0.3000
T03F00S00C0.5000
T04F00S00C0.9000
T05F00S00C1.0400
T06F00S00C1.1000
T07F00S00C1.2000
T08F00S00C1.4000
T09F00S00C2.3000
T10F00S00C3.2000
T11F00S00C4.2000
;TYPE=NON_PLATED
T12F00S00C1.3000
%
T01
X00961Y0020661
X00991
X01021
X01036Y0023661
X01006
X01021Y0026661
X01051
X01036Y0029661
X01006
X01021Y0032661
X00991
Y0026661
X00886Y0017661
X00826
X00811Y0020661
X00561Y0031661
X00551
X00541
X00546Y0030661
X00561Y0033661
X00511
X00506Y0032661
X00516
X00536Y0030661
X00531Y0035661
X00521
X00511
X00506Y0036661
X00516
X00511Y0037661
X00506Y0034661
X00541Y0035661
X00551
X01006Y0035661
X01036
X01051Y0038661
X01021
X00991
Y0044661
X01021
X01036Y0047661
X01006
X00991Y0050661
X01051
T02
X00944143Y00124
X00954428
X00964714
X00975
X009632Y0024527
Y00255841
Y00266413
Y00276984
Y00287556
Y00298127
Y00308699
Y0031927
X0092656Y0018875
X00915988
X00905417
X00894845
X0088556
X00874988
X00864417
X00853845
X0084556Y0019675
X00833429Y00203
X00746
X00738394Y0019228
X00741Y00177
X00740394Y0016228
X0075258Y0015507
X00742Y00141
X00737Y0012
X00762Y00127
Y00104
X00812Y00096
X00903Y00124
X00913286
X00923571
X00933857
X00692Y00151
X00657Y00156
X00661Y00166
X00662Y0018807
X00672
X00682
X00648Y00199
X005968Y00207841
Y002175
X00597Y0023
X005968Y00239984
Y0025027
Y00260841
Y00271413
Y00281984
Y00292556
Y00303127
Y00313699
Y0032427
X00553Y00255
X00579844Y00166024
X00623Y00122
X00644Y00139
X0068Y001
X0058Y00072
X00737Y00215
X00533Y00171
X005334Y00127
X0052705Y0011176
X00506Y00095
X00508Y0007874
X004953Y0005842
X0048514
X0046355Y0008255
X0046Y00095
X0047625Y0011176
X00419Y00154
X00414Y00055
X00449Y00016
X00536Y00021
X0034925Y0001524
X0033528Y0002286
X0028702
X00228Y00026
Y00037
Y00047
Y00057
Y00068
X0024511Y0008255
X00261Y00089
X0027432Y001143
X00258Y0013
X0024511Y0013208
X0023368Y0012954
X002159Y0010668
X0021844Y0009779
X00168Y00076
X00181Y00142
X00283Y00155
X0028829Y0018415
X003175Y0017018
X00326Y0025675
X00339Y00248
X00302Y00252
X00250615Y0023324
X0023368Y0023229
X00229Y00285
X00276Y00303
X00269Y00324
X00312Y00323
X0034163Y0032639
X00362Y00327
X0036576Y0029845
X00342Y00299
X00409Y00303
X00412Y00313
X00406Y00324
X00411Y00292
X00429Y00271
X00455495Y00324495
X0049Y00337
X00495Y00308
X00513Y00257
X0037211Y0023622
X0018415Y0026289
X0015367Y0028321
X0015494Y0030033
X0012873Y002502
X0009779Y0034544
X0013831Y0039116
X00251Y00377
X0025Y00358
Y00342
X00279Y00358
Y00377
X00332Y00393
X00331Y00412
X0036322Y0041275
X00355611Y00401097
X00365Y00387
X0036Y00364
X0041Y00359
X00405Y00346
X00444715Y0035121
X00475Y00351
X00497Y0038
X00491868Y00493
X00497Y00514
X00472Y00479
X00460162Y0048006
X00453162
X00415Y00493
X00416Y00514
X00409Y00444
X00373178Y00454255
X0025908Y0047891
X00238845Y0047725
X00285Y00552
X00265Y00582
X00268Y00634
X0059Y00555
X00587Y00516
X00589Y00502
Y00493
Y00484
X00579
Y00493
Y00502
X00569
Y00493
Y00484
Y00474
X00579
X00589
X00599
Y00484
Y00493
Y00502
X00574Y00522
X00641Y00516
X00647Y00505
X00677Y00512
X00682Y00536
X00695Y00537
X0066Y00538
X00627Y00562
X00729Y00563
X00766Y00552
X0077Y00537
X00751Y0052975
X00758Y00497
X00768
X00779
X00791
Y00485
X00779
X00768
X00758
X0075254Y0045607
X0074154
X0073054
X00804Y0045007
X00814571
X00825143
X00835714
X00844Y00505
X00878Y00511
X00883Y00537
X00894Y00535
X00909Y00511
X00924Y00507
Y00516
X00932Y00546
X0093027Y0045127
X0081427Y0038
X00803699
X00793127
X00782556
X00771984
X00761413
X00750841
X0074027
X00707Y00512
X00782Y0051
X00829Y00569
X0064073Y004558
X0062873
X0061673
X0060473
X00940841Y0045127
X00951413
X00967Y00486
Y00499
Y00516
X00954667
Y00507
X00939
Y00516
T03
X0103Y0003
X0105Y000225
X0107Y0003
X010775Y0005
X0107Y0007
X0105Y000775
X0103Y0007
X010225Y0005
X000775
X0007Y0007
X0005Y000775
X0003Y0007
X000225Y0005
X0003Y0003
X0005Y000225
X0007Y0003
Y0063
X000775Y0065
X0007Y0067
X0005Y006775
X0003Y0067
X000225Y0065
X0003Y0063
X0005Y006225
X0103Y0063
X0105Y006225
X0107Y0063
X010775Y0065
X0107Y0067
X0105Y006775
X0103Y0067
X010225Y0065
T04
X0011694Y0063119
X0019294
T05
X0040803Y0058501
X0043573
X0046343
X0049113
X0051883
X0050498Y0061341
X0047728
X0044958
X0042188
T06
X0003048Y0025146
Y0027686
Y0030226
Y0032766
Y0035306
Y0037846
T07
X0062925Y000247
X0065425
X0067925
X0070425
X0078292
X0080792
X0083292
X0085792
X0007703Y0048514
X006479Y0067089
X006729
T08
X0104394Y0016256
Y0020216
X01038Y00282
Y003216
X0082042Y000381
X0066675
X000635Y0015113
Y0019073
X0015203Y0048514
X01033694Y0051285
Y0055245
X0104521Y0044323
Y0040363
T09
X0099894Y0018236
X01083Y003018
X000185Y0017093
X0100021Y0042343
X01078694Y0053265
T10
X0033843Y0059921
X0058843
T11
X0105Y0005
X0005
Y0065
X0105
T12
X006604Y0065749
M30
