M48
;Layer_Color=9474304
;FILE_FORMAT=4:4
METRIC,LZ
;TYPE=PLATED
T01F00S00C0.3000
T02F00S00C0.5000
T03F00S00C1.1000
T04F00S00C1.2000
T05F00S00C1.3000
T06F00S00C1.4000
T07F00S00C1.5000
T08F00S00C2.3000
T09F00S00C4.2000
;TYPE=NON_PLATED
T10F00S00C1.3000
%
T01
X00134Y00033
X00431Y00062
X0044775Y0008275
X00459
X00472
X00459Y0009575
X0044775
Y0010825
X00459
Y0012
X0044775
X0047825Y001335
X004915
X00503
X00513Y00119
Y00109
Y00099
X006748Y001165
X00756Y00112071
X008055Y00142
X0084Y0011
X00925Y00111
X00996Y001
X01161
X01437Y00264
X01443Y0042925
X0140625Y0042525
X0143025Y0046
X0135325Y0047325
X012755Y0037025
X012635
X012515
X012385Y0039675
X01193125Y00382875
X01137Y0039425
X01081Y004005
X0101695Y0036525
X010085Y0029025
X00996Y0027875
X0100275Y0026725
X0102075Y0023125
X01068Y002375
X0105475Y0031175
X0117225Y00296
X01178214Y00286
X01199348Y00279684
X01196657Y002585
X01217508Y00258903
X01215633Y00250075
X0121516Y00268341
X0121975Y0029
X0121455Y0021975
Y00209062
Y00198375
X012445Y002
X0118375Y0018825
X01183562Y00179875
Y001715
X0117224
Y00179875
Y0018825
X011885Y00227
X0095525Y0023275
X010055Y0049
X01159Y004995
X00885Y00514
X0083925Y0049875
X00808Y0048525
Y0047375
X00772441Y00464237
X00777Y00449
X0079575Y0039125
X0080375Y00363
X0080725Y0035325
X007985Y00332
X007511Y003476
Y003671
X00742Y00397
X00723
X00701053Y00391733
X0070375Y004095
X00711Y00474
X00689133Y00489529
X00701383Y00509
X0069575Y00518
X0072975Y005145
X00769757Y0052425
X008034Y0053325
X0061925Y0046225
X00621Y00454
X00569081Y00458954
X00566312Y00439954
X00569081Y0048875
X00572721Y00499278
X005705Y00508
X0063Y003045
X006825Y0031675
X00688643Y00333143
X00745Y0031425
X00754476Y0030575
X007785Y002615
X007841Y002177
X007298Y00236488
X0070425Y0027325
X00669Y00226
X00703Y00182
X005475Y00183
X0091175Y0027475
X00914118Y00306
X009095Y003315
X0048225Y00300875
X004285Y002415
X0044026Y001935
X00465197Y00196
Y00185053
X00507816Y001775
X0051325Y00169
X0039725Y001565
X00384Y00145
X00293197Y002
X00287197Y00257
X002025Y0023525
X00163989Y00203782
X0039375Y003635
X0040575
X0041775
X00418Y00491
X003845Y0050325
X00331Y00478
X0049275Y004975
X00094Y00575
X0004654
X0016975Y00635
X0020825Y006535
X002595Y00649
X00246559Y0062075
X00285458Y00620048
X00302Y00583
X003785Y0057095
X004615Y005625
X004755Y005575
X0050625Y00612
X00524Y00674
X0047725Y0067775
X0044575Y00701
X00431875
X00418
X00454Y007455
Y00757125
Y00769
X00467875
Y00757125
Y007455
X00501625Y00732
Y0072175
X0053125Y007845
X005005Y00837
X00445875Y008045
X00432
X00418125
X002875Y00798
X00287893Y00773571
X0027325Y007765
X00261Y00757
X002145Y00754
X00217Y0073175
X002205Y007765
X00219884Y00796912
X00223Y00833
X00313021Y007695
X0032475Y0076075
X003105Y00739
X003325Y006895
X0055175Y0070375
X0057458Y00612
X006285Y0062325
X0063725Y0056175
X00691Y005725
X0069302Y0059875
X0071875Y0062225
X007165Y0063025
X007385Y0062225
X00716Y00569
X007635Y005425
X0082425Y005705
X0082525Y005885
X0090475Y007215
X00913Y00742
X00678Y00717
X009555Y00683
X01059Y00545
X01197Y00543
X012655Y00693
X01316Y00735
X012925Y0078025
T02
X0003Y0003
X000225Y0005
X0003Y0007
X0005Y000775
X0007Y0007
X000775Y0005
X0007Y0003
X0005Y000225
X0143Y0003
X014225Y0005
X0143Y0007
X0145Y000775
X0147Y0007
X014775Y0005
X0147Y0003
X0145Y000225
X0007Y0078
X0005Y007725
X0003Y0078
X000225Y008
X0003Y0082
X0005Y008275
X0007Y0082
X000775Y008
X014225
X0143Y0082
X0145Y008275
X0147Y0082
X014775Y008
X0147Y0078
X0145Y007725
X0143Y0078
T03
X006842Y00815
X007096
X00735
X007604
X007858
X008112
T04
X004835Y00034
X005085
X005335
X005585
X00674Y000287
X00699
X008225Y000277
X008475
X010245Y000574
X010495
X0111Y000282
X01135
X009185Y008114
X008935
X008685
X009435
T05
X01005Y00462
X0108
X011505Y004615
X012255
X00336697Y004045
Y003345
X00261696Y003695
X002015Y003355
Y004055
Y001675
X00261696Y001665
X00336697
X001265Y001675
Y003705
X0017Y00544
Y0057
Y00596
X01005Y00665
X0108Y0063
Y007
X011505Y006645
X012255Y006295
Y006995
X01292Y0055475
X01318
X01344
T06
X00215Y00053
X002546
X00521Y000474
X0018825Y007825
X0014865
X00906Y00798
X01005Y007825
X010446
T07
X01381Y001642
Y00215
Y002942
Y00345
X01464Y00343
Y002922
X01466Y00213
Y001622
X00108Y00487
Y005378
X00033
Y00487
X00034Y00616
Y006668
X00106Y006678
Y00617
T08
X002348Y00098
X0016845Y008275
X010248
T09
X0005Y0005
X0145
X0005Y008
X0145
T10
X006865Y000421
X00835Y000411
X01037Y00044
X011225Y000416
M30
