M48
;Layer_Color=9474304
;FILE_FORMAT=4:4
METRIC,LZ
;TYPE=PLATED
T01F00S00C0.5000
T02F00S00C1.2000
T03F00S00C1.4000
T04F00S00C4.2000
%
T01
X00066Y00066
X00146
X0023Y0006
X002225Y0004
X0023Y0002
X0025Y000125
X0027Y0002
X002775Y0004
X0027Y0006
X0025Y000675
X00306Y00066
X00386
X00426Y00146
X00346
X00266
X00186
X00226Y00226
X00306
X00386
X00346Y00306
X00266
X00186
X00226Y00386
X00306
X00386
X00346Y00466
X00266
X00186
X00146Y00386
Y00226
X00066
X00106Y00306
X00066Y00386
X00106Y00466
Y00146
X00066Y00546
X00106Y00626
X00066Y00706
X00106Y00786
X00066Y00866
X00146
X00226
X00306
X00386
X00426Y00786
X00346
X00266
X00186
X00226Y00706
X00306
X00386
X00426Y00626
X00346
X00266
X00186
X00226Y00546
X00306
X00386
X00146
Y00706
X00186Y00946
X00266
X00306Y01026
X00386
X00426Y00946
X00346Y01106
X00266
X0027Y0114
X002775Y0116
X0027Y0118
X0025Y011875
X0023Y0118
X002225Y0116
X0023Y0114
X0025Y011325
X00186Y01106
X00226Y01026
X00146
X00066
X00106Y01106
Y00946
T02
X0045212Y0093258
Y0095758
Y0098258
Y0100758
T03
X0046552Y0097008
T04
X0025Y0004
Y0116
M30
