%TF.GenerationSoftware,Altium Limited,Altium Designer,24.10.1 (45)*%
G04 Layer_Color=16711935*
%FSLAX45Y45*%
%MOMM*%
%TF.SameCoordinates,F32E79B8-3EE6-45AC-B240-D7E690F0A26B*%
%TF.FilePolarity,Negative*%
%TF.FileFunction,Soldermask,Bot*%
%TF.Part,Single*%
G01*
G75*
%TA.AperFunction,SMDPad,CuDef*%
%ADD23C,7.20320*%
%TA.AperFunction,ComponentPad*%
%ADD24C,1.51000*%
%ADD25C,1.91000*%
%ADD26R,2.00320X2.00320*%
%ADD27C,2.00320*%
%TA.AperFunction,ViaPad*%
%ADD28C,0.90320*%
%ADD29C,4.60320*%
D23*
X2500000Y11600000D02*
D03*
Y400000D02*
D03*
Y11600000D02*
D03*
Y400000D02*
D03*
D24*
X4655200Y9700800D02*
D03*
D25*
X4521200Y9575800D02*
D03*
Y9825800D02*
D03*
D26*
Y10075800D02*
D03*
D27*
Y9325800D02*
D03*
D28*
X3859999Y10259999D02*
D03*
X4259999Y9459999D02*
D03*
X3859999Y8659999D02*
D03*
X4259999Y7859999D02*
D03*
X3859999Y7059999D02*
D03*
X4259999Y6259999D02*
D03*
X3859999Y5459999D02*
D03*
Y3859999D02*
D03*
Y2260000D02*
D03*
X4259999Y1460000D02*
D03*
X3859999Y660000D02*
D03*
X3459999Y11059999D02*
D03*
X3059999Y10259999D02*
D03*
Y8659999D02*
D03*
X3459999Y7859999D02*
D03*
X3059999Y7059999D02*
D03*
X3459999Y6259999D02*
D03*
X3059999Y5459999D02*
D03*
X3459999Y4659999D02*
D03*
X3059999Y3859999D02*
D03*
X3459999Y3059999D02*
D03*
X3059999Y2260000D02*
D03*
X3459999Y1460000D02*
D03*
X3059999Y660000D02*
D03*
X2660000Y11059999D02*
D03*
X2260000Y10259999D02*
D03*
X2660000Y9459999D02*
D03*
X2260000Y8659999D02*
D03*
X2660000Y7859999D02*
D03*
X2260000Y7059999D02*
D03*
X2660000Y6259999D02*
D03*
X2260000Y5459999D02*
D03*
X2660000Y4659999D02*
D03*
X2260000Y3859999D02*
D03*
X2660000Y3059999D02*
D03*
X2260000Y2260000D02*
D03*
X2660000Y1460000D02*
D03*
X1860000Y11059999D02*
D03*
X1460000Y10259999D02*
D03*
X1860000Y9459999D02*
D03*
X1460000Y8659999D02*
D03*
X1860000Y7859999D02*
D03*
X1460000Y7059999D02*
D03*
X1860000Y6259999D02*
D03*
X1460000Y5459999D02*
D03*
X1860000Y4659999D02*
D03*
X1460000Y3859999D02*
D03*
X1860000Y3059999D02*
D03*
X1460000Y2260000D02*
D03*
X1860000Y1460000D02*
D03*
X1460000Y660000D02*
D03*
X1060000Y11059999D02*
D03*
X660000Y10259999D02*
D03*
X1060000Y9459999D02*
D03*
X660000Y8659999D02*
D03*
X1060000Y7859999D02*
D03*
X660000Y7059999D02*
D03*
X1060000Y6259999D02*
D03*
X660000Y5459999D02*
D03*
X1060000Y4659999D02*
D03*
X660000Y3859999D02*
D03*
X1060000Y3059999D02*
D03*
X660000Y2260000D02*
D03*
X1060000Y1460000D02*
D03*
X660000Y660000D02*
D03*
X2500000Y11875000D02*
D03*
X2700000Y11800000D02*
D03*
X2775000Y11600000D02*
D03*
X2700000Y11400000D02*
D03*
X2500000Y11325000D02*
D03*
X2300000Y11400000D02*
D03*
X2225000Y11600000D02*
D03*
X2300000Y11800000D02*
D03*
Y600000D02*
D03*
X2225000Y400000D02*
D03*
X2300000Y200000D02*
D03*
X2500000Y125000D02*
D03*
X2700000Y200000D02*
D03*
X2775000Y400000D02*
D03*
X2700000Y600000D02*
D03*
X2500000Y675000D02*
D03*
D29*
Y11600000D02*
D03*
Y400000D02*
D03*
%TF.MD5,2804c2fdddc03bc33400f54490f1d7da*%
M02*
