%TF.GenerationSoftware,Altium Limited,Altium Designer,24.10.1 (45)*%
G04 Layer_Color=0*
%FSLAX45Y45*%
%MOMM*%
%TF.SameCoordinates,F32E79B8-3EE6-45AC-B240-D7E690F0A26B*%
%TF.FilePolarity,Positive*%
%TF.FileFunction,Profile,NP*%
%TF.Part,Single*%
G01*
G75*
%TA.AperFunction,Profile*%
%ADD30C,0.02540*%
G36*
X4370000Y10700000D02*
X4350301D01*
X4311662Y10707686D01*
X4275264Y10722762D01*
X4242507Y10744650D01*
X4214649Y10772507D01*
X4192762Y10805264D01*
X4177686Y10841662D01*
X4170000Y10880302D01*
Y10900000D01*
Y10919698D01*
X4177686Y10958338D01*
X4192762Y10994735D01*
X4214649Y11027493D01*
X4242507Y11055350D01*
X4275264Y11077238D01*
X4311662Y11092314D01*
X4350301Y11100000D01*
X4370000D01*
X4389698D01*
X4428338Y11092314D01*
X4464735Y11077238D01*
X4497492Y11055350D01*
X4525350Y11027493D01*
X4547238Y10994735D01*
X4562314Y10958338D01*
X4570000Y10919698D01*
Y10900000D01*
Y10880302D01*
X4562314Y10841662D01*
X4547238Y10805264D01*
X4525350Y10772507D01*
X4497492Y10744650D01*
X4464735Y10722762D01*
X4428338Y10707686D01*
X4389698Y10700000D01*
X4370000D01*
D01*
D02*
G37*
G36*
Y900000D02*
X4350301D01*
X4311662Y907686D01*
X4275264Y922762D01*
X4242507Y944650D01*
X4214649Y972507D01*
X4192762Y1005264D01*
X4177686Y1041662D01*
X4170000Y1080302D01*
Y1100000D01*
Y1119698D01*
X4177686Y1158338D01*
X4192762Y1194735D01*
X4214649Y1227493D01*
X4242507Y1255350D01*
X4275264Y1277238D01*
X4311662Y1292314D01*
X4350301Y1300000D01*
X4370000D01*
X4389698D01*
X4428338Y1292314D01*
X4464735Y1277238D01*
X4497492Y1255350D01*
X4525350Y1227493D01*
X4547238Y1194735D01*
X4562314Y1158338D01*
X4570000Y1119698D01*
Y1100000D01*
Y1080302D01*
X4562314Y1041662D01*
X4547238Y1005264D01*
X4525350Y972507D01*
X4497492Y944650D01*
X4464735Y922762D01*
X4428338Y907686D01*
X4389698Y900000D01*
X4370000D01*
D01*
D02*
G37*
G36*
X630000D02*
X610302D01*
X571662Y907686D01*
X535264Y922762D01*
X502507Y944650D01*
X474650Y972507D01*
X452762Y1005264D01*
X437686Y1041662D01*
X430000Y1080302D01*
Y1100000D01*
Y1119698D01*
X437686Y1158338D01*
X452762Y1194735D01*
X474650Y1227493D01*
X502507Y1255350D01*
X535264Y1277238D01*
X571662Y1292314D01*
X610302Y1300000D01*
X630000D01*
X649698D01*
X688338Y1292314D01*
X724735Y1277238D01*
X757493Y1255350D01*
X785350Y1227493D01*
X807238Y1194735D01*
X822314Y1158338D01*
X830000Y1119698D01*
Y1100000D01*
Y1080302D01*
X822314Y1041662D01*
X807238Y1005264D01*
X785350Y972507D01*
X757493Y944650D01*
X724735Y922762D01*
X688338Y907686D01*
X649698Y900000D01*
X630000D01*
D01*
D02*
G37*
G36*
Y10700000D02*
X610302D01*
X571662Y10707686D01*
X535264Y10722762D01*
X502507Y10744650D01*
X474650Y10772507D01*
X452762Y10805264D01*
X437686Y10841662D01*
X430000Y10880302D01*
Y10900000D01*
Y10919698D01*
X437686Y10958338D01*
X452762Y10994735D01*
X474650Y11027493D01*
X502507Y11055350D01*
X535264Y11077238D01*
X571662Y11092314D01*
X610302Y11100000D01*
X630000D01*
X649698D01*
X688338Y11092314D01*
X724735Y11077238D01*
X757493Y11055350D01*
X785350Y11027493D01*
X807238Y10994735D01*
X822314Y10958338D01*
X830000Y10919698D01*
Y10900000D01*
Y10880302D01*
X822314Y10841662D01*
X807238Y10805264D01*
X785350Y10772507D01*
X757493Y10744650D01*
X724735Y10722762D01*
X688338Y10707686D01*
X649698Y10700000D01*
X630000D01*
D01*
D02*
G37*
D30*
X0Y0D02*
Y12000000D01*
X5000000D01*
Y0D01*
X0D01*
%TF.MD5,55eb83bdac9a4a40f0a5d4a0fef467c9*%
M02*
